<?xml version="1.0" encoding="iso-8859-1"?>
<!-- Uploaded to: SVG Repo, www.svgrepo.com, Generator: SVG Repo Mixer Tools -->
<svg fill="#000000" height="800px" width="800px" version="1.1" id="Layer_1" xmlns="http://www.w3.org/2000/svg" xmlns:xlink="http://www.w3.org/1999/xlink" 
	 viewBox="0 0 512 512" xml:space="preserve">
<g>
	<g>
		<g>
			<path d="M206.732,296.794c7.739,14.107,21.117,24.482,36.707,28.465c4.73,1.209,9.562,1.802,14.379,1.802
				c11.061,0,22.039-3.135,31.481-9.171c13.557-8.666,23.013-22.71,25.943-38.531c2.93-15.821-0.869-32.32-10.424-45.266
				L170.866,52.589c-13.451-18.226-38.936-22.945-58.02-10.746c-19.085,12.199-25.501,37.311-14.607,57.17L206.732,296.794z
				 M121.456,55.313c4.504-2.879,9.573-4.262,14.6-4.262c8.387,0,16.649,3.853,21.946,11.031l133.953,181.505
				c7.038,9.536,9.725,21.206,7.567,32.86c-2.158,11.654-8.847,21.588-18.833,27.972c-9.987,6.384-21.811,8.284-33.293,5.349
				c-11.483-2.934-20.948-10.272-26.648-20.664L112.255,91.325C105.393,78.816,109.435,62.998,121.456,55.313z"/>
			<path d="M255.997,103.125c28.432,0,51.563-23.132,51.563-51.563C307.559,23.131,284.429,0,255.997,0
				s-51.563,23.131-51.563,51.563S227.565,103.125,255.997,103.125z M255.997,15.987c19.615,0,35.575,15.959,35.575,35.575
				c0,19.617-15.96,35.575-35.575,35.575c-19.617,0-35.575-15.96-35.575-35.575C220.422,31.946,236.38,15.987,255.997,15.987z"/>
			<path d="M463.279,132.879c-24.775-38.567-59.676-69.409-100.93-89.193c-15.896-7.622-35.033-0.891-42.657,15.005
				c-7.623,15.897-0.892,35.034,15.005,42.658c30.556,14.654,56.413,37.509,74.776,66.094
				c18.831,29.312,28.784,63.322,28.784,98.351c0,100.497-81.76,182.256-182.256,182.256S73.745,366.291,73.745,265.794
				c0-36.093,10.522-70.971,30.427-100.865c4.733-7.108,6.416-15.636,4.737-24.01c-1.68-8.374-6.52-15.593-13.628-20.326
				c-7.109-4.733-15.636-6.417-24.01-4.737c-8.374,1.68-15.593,6.52-20.326,13.628C24.024,169.91,9.794,217.045,9.794,265.794
				c0,65.764,25.61,127.591,72.112,174.094C128.408,486.39,190.236,512,256,512s127.591-25.61,174.094-72.112
				c46.502-46.502,72.112-108.331,72.112-174.094C502.206,218.485,488.745,172.523,463.279,132.879z M418.788,428.583
				c-43.483,43.483-101.295,67.43-162.788,67.43s-119.307-23.947-162.789-67.43c-43.483-43.483-67.43-101.296-67.43-162.789
				c0-45.585,13.303-89.656,38.469-127.448c2.367-3.553,5.976-5.974,10.164-6.814c1.058-0.212,2.121-0.317,3.176-0.317
				c3.12,0,6.172,0.917,8.828,2.686c3.553,2.367,5.974,5.976,6.814,10.163c0.84,4.188-0.002,8.451-2.368,12.005
				c-21.659,32.526-33.108,70.468-33.108,109.726c0,109.312,88.932,198.244,198.244,198.244s198.244-88.932,198.244-198.244
				c0-38.1-10.83-75.097-31.319-106.992c-19.966-31.081-48.085-55.932-81.315-71.869c-7.949-3.812-11.314-13.38-7.502-21.328
				c3.811-7.948,13.378-11.314,21.329-7.502c38.579,18.501,71.219,47.346,94.391,83.418c23.808,37.062,36.393,80.035,36.393,124.274
				C486.219,327.288,462.272,385.1,418.788,428.583z"/>
		</g>
	</g>
</g>
</svg>